<svg width="115" height="24" viewBox="0 0 115 24" fill="none" xmlns="http://www.w3.org/2000/svg">
<path d="M9.68275 18.312C6.75342 18.312 4.55208 17.5407 3.07875 15.998C1.60542 14.4553 0.86875 12.1673 0.86875 9.134C0.86875 7.27933 1.22408 5.68467 1.93475 4.35C2.64542 2.998 3.67675 1.96667 5.02875 1.256C6.38075 0.545332 7.98408 0.189998 9.83875 0.189998C12.0921 0.189998 14.2848 0.640665 16.4168 1.542C16.2434 3.206 16.0008 4.87 15.6888 6.534L13.7128 6.664L12.0748 4.272C11.2081 3.96 10.1334 3.804 8.85075 3.804C8.24408 3.804 7.51608 3.86467 6.66675 3.986C6.35475 4.506 6.11208 5.19933 5.93875 6.066C5.76542 6.93267 5.67875 7.86867 5.67875 8.874C5.67875 10.8673 6.07742 12.358 6.87475 13.346C7.67208 14.3167 8.91142 14.8107 10.5928 14.828C11.0088 14.828 11.5374 14.7933 12.1788 14.724V12.826C12.1788 12.4793 12.1528 12.254 12.1008 12.15C12.0488 12.046 11.9014 11.9247 11.6588 11.786L10.6708 11.292L10.7748 9.524L11.3728 9.42C11.5634 9.38533 12.2394 9.28133 13.4008 9.108C14.5621 8.91733 15.5328 8.80467 16.3128 8.77C16.4861 9.09933 16.6161 9.472 16.7028 9.888V16.7C15.6974 17.2027 14.5794 17.6013 13.3487 17.896C12.1181 18.1733 10.8961 18.312 9.68275 18.312ZM23.281 23.954C22.033 23.122 20.9236 22.0473 19.953 20.73L22.839 17.896L19.069 7.964C18.8783 7.496 18.7483 7.19267 18.679 7.054C18.6096 6.91533 18.4796 6.72467 18.289 6.482L17.847 5.91L17.977 4.402H24.633L24.893 6.612L23.385 6.976L25.517 13.502L27.909 7.522C27.9436 7.418 27.961 7.34 27.961 7.288C27.961 7.132 27.8916 7.028 27.753 6.976L26.531 6.456L26.765 4.402H31.705L31.939 6.508L28.611 13.762C27.415 16.3793 26.427 18.4333 25.647 19.924C24.867 21.4147 24.0783 22.758 23.281 23.954ZM33.2678 15.53L34.8798 15.062V8.744C34.8798 8.36267 34.8538 8.12 34.8018 8.016C34.7498 7.89467 34.6111 7.76467 34.3858 7.626L33.2418 7.002L33.3198 5.052L34.0218 4.922C36.1538 4.48867 37.7311 4.25467 38.7538 4.22C38.8925 4.584 39.0051 4.95667 39.0918 5.338C40.0278 4.90467 40.8251 4.60133 41.4838 4.428C42.1598 4.23733 42.7751 4.142 43.3298 4.142C44.0058 4.142 44.6385 4.272 45.2278 4.532C45.8171 4.77467 46.2591 5.104 46.5538 5.52C47.5418 5.03467 48.4258 4.688 49.2058 4.48C50.0031 4.25467 50.7571 4.142 51.4678 4.142C52.8891 4.142 53.9378 4.54933 54.6138 5.364C55.2898 6.17867 55.6278 7.418 55.6278 9.082V14.204C55.6278 14.568 55.6538 14.8107 55.7058 14.932C55.7578 15.0533 55.9051 15.1833 56.1478 15.322L57.3958 16.05L57.2918 18H50.2198L50.0898 15.53L51.3378 15.166V10.252C51.3378 9.50667 51.3118 8.978 51.2598 8.666C51.2251 8.33667 51.0865 8.08533 50.8438 7.912C50.6011 7.72133 50.1938 7.626 49.6218 7.626C49.1711 7.626 48.4171 7.704 47.3598 7.86C47.3945 8.13733 47.4118 8.54467 47.4118 9.082V14.204C47.4118 14.568 47.4378 14.8107 47.4898 14.932C47.5418 15.0533 47.6978 15.1833 47.9578 15.322L49.2318 16.05L49.1278 18H42.0038L41.8738 15.53L43.1218 15.166V10.252C43.1218 9.48933 43.0958 8.952 43.0438 8.64C43.0091 8.31067 42.8705 8.05933 42.6278 7.886C42.3851 7.71267 41.9865 7.626 41.4318 7.626C40.8251 7.626 40.0885 7.704 39.2218 7.86V14.204C39.2218 14.568 39.2478 14.8107 39.2998 14.932C39.3518 15.0533 39.4905 15.1833 39.7158 15.322L40.9898 16.05L40.8858 18H33.3978L33.2678 15.53Z" fill="#30B0C7"/>
<path d="M62.1243 15.452L64.3863 14.828V3.57L62.2023 3.752L60.2783 6.066L58.3803 5.91C58.3803 4.47133 58.4497 2.66 58.5883 0.475999H74.8643C75.003 2.66 75.0723 4.47133 75.0723 5.91L73.2003 6.066L71.2503 3.752L69.1183 3.57V13.788C69.1183 14.204 69.1443 14.4727 69.1963 14.594C69.2483 14.7153 69.3957 14.8367 69.6383 14.958L71.2503 15.92L71.1463 18H62.2543L62.1243 15.452ZM79.7442 18.338C78.5656 18.338 77.6209 18.0173 76.9102 17.376C76.1996 16.7173 75.8442 15.8767 75.8442 14.854C75.8442 13.4847 76.5289 12.41 77.8982 11.63C79.2849 10.85 81.2956 10.408 83.9302 10.304C83.9302 9.48933 83.8609 8.89133 83.7222 8.51C83.6009 8.11133 83.3669 7.84267 83.0202 7.704C82.6909 7.548 82.1796 7.47 81.4862 7.47C80.7756 7.47 80.2729 7.496 79.9782 7.548L78.9122 9.654L76.9882 9.524C76.6936 8.13733 76.4856 6.69867 76.3642 5.208C77.3349 4.87867 78.3922 4.61867 79.5362 4.428C80.6976 4.23733 81.7809 4.142 82.7862 4.142C84.6236 4.142 85.9409 4.506 86.7382 5.234C87.5356 5.94467 87.9342 7.132 87.9342 8.796V14.23C87.9342 14.542 87.9602 14.7587 88.0122 14.88C88.0816 15.0013 88.2202 15.1227 88.4282 15.244L89.4682 15.842L89.3642 17.454C87.3536 17.922 85.7676 18.182 84.6062 18.234C84.5716 18.13 84.5196 17.948 84.4502 17.688C84.3809 17.4107 84.3202 17.1507 84.2682 16.908C83.5922 17.3413 82.8469 17.688 82.0322 17.948C81.2349 18.208 80.4722 18.338 79.7442 18.338ZM81.4862 15.4C82.1796 15.4 83.0202 15.166 84.0082 14.698L83.9042 12.722C83.4882 12.6873 83.2109 12.67 83.0722 12.67C82.6042 12.67 82.0582 12.722 81.4342 12.826C80.8102 12.9127 80.3162 13.0167 79.9522 13.138C79.9002 13.3633 79.8742 13.5713 79.8742 13.762C79.8742 14.282 80.0129 14.6893 80.2902 14.984C80.5849 15.2613 80.9836 15.4 81.4862 15.4ZM90.3967 15.53L92.0087 15.062V8.744C92.0087 8.36267 91.9827 8.12 91.9307 8.016C91.8787 7.89467 91.74 7.76467 91.5147 7.626L90.3707 7.002L90.4487 5.052L91.1507 4.922C93.2827 4.48867 94.86 4.25467 95.8827 4.22C96.0214 4.584 96.134 4.95667 96.2207 5.338C97.1567 4.90467 97.954 4.60133 98.6127 4.428C99.2887 4.23733 99.904 4.142 100.459 4.142C101.135 4.142 101.767 4.272 102.357 4.532C102.946 4.77467 103.388 5.104 103.683 5.52C104.671 5.03467 105.555 4.688 106.335 4.48C107.132 4.25467 107.886 4.142 108.597 4.142C110.018 4.142 111.067 4.54933 111.743 5.364C112.419 6.17867 112.757 7.418 112.757 9.082V14.204C112.757 14.568 112.783 14.8107 112.835 14.932C112.887 15.0533 113.034 15.1833 113.277 15.322L114.525 16.05L114.421 18H107.349L107.219 15.53L108.467 15.166V10.252C108.467 9.50667 108.441 8.978 108.389 8.666C108.354 8.33667 108.215 8.08533 107.973 7.912C107.73 7.72133 107.323 7.626 106.751 7.626C106.3 7.626 105.546 7.704 104.489 7.86C104.523 8.13733 104.541 8.54467 104.541 9.082V14.204C104.541 14.568 104.567 14.8107 104.619 14.932C104.671 15.0533 104.827 15.1833 105.087 15.322L106.361 16.05L106.257 18H99.1327L99.0027 15.53L100.251 15.166V10.252C100.251 9.48933 100.225 8.952 100.173 8.64C100.138 8.31067 99.9994 8.05933 99.7567 7.886C99.514 7.71267 99.1154 7.626 98.5607 7.626C97.954 7.626 97.2174 7.704 96.3507 7.86V14.204C96.3507 14.568 96.3767 14.8107 96.4287 14.932C96.4807 15.0533 96.6194 15.1833 96.8447 15.322L98.1187 16.05L98.0147 18H90.5267L90.3967 15.53Z" fill="#FF9500"/>
</svg>
